<svg version="1.1" viewBox="0 0 24 24" xmlns="http://www.w3.org/2000/svg">
  <circle cx="12" cy="12" r="12" fill="#5f5fd3" style="paint-order:stroke fill markers"/>
  <path d="m20.6 12c0 1.53-.819 2.95-2.15 3.72s-2.97.767-4.3 0-2.15-2.19-2.15-3.72-.819-2.95-2.15-3.72c-1.33-.767-2.97-.767-4.3 0s-2.15 2.19-2.15 3.72" fill="none" stroke="#f9f9f9" stroke-width="1.3"/>
  <path d="m7.74 19.5c-1.39-.739-2.27-2.18-2.29-3.75s.819-3.04 2.19-3.81c1.37-.775 3.06-.741 4.39.0888 1.32.767 2.95.772 4.27.0129 1.32-.759 2.14-2.17 2.15-3.69s-.805-2.94-2.13-3.71" fill="none" stroke="#f9f9f9" stroke-width="1.3"/>
  <path d="m7.48 4.69c4.92-2.86 9.28 4.58 4.32 7.44-4.92 2.86-.637 10.3 4.29 7.42" fill="none" stroke="#f9f9f9" stroke-width="1.3"/>
  <circle cx="12" cy="12" r="8.59" fill="none" stroke="#f9f9f9" stroke-width="1.51"/>
</svg>
